<svg width="20" height="20" viewBox="0 0 20 20" fill="none" xmlns="http://www.w3.org/2000/svg">
    <path fill-rule="evenodd" clip-rule="evenodd" d="M3.125 12.812L11.5625 12.812C11.9077 12.812 12.1875 13.0918 12.1875 13.437C12.1875 13.7822 11.9077 14.062 11.5625 14.062L3.125 14.062C2.77982 14.062 2.5 13.7822 2.5 13.437C2.5 13.0918 2.77982 12.812 3.125 12.812Z" fill="#383838" fill-opacity="0.82"/>
    <path fill-rule="evenodd" clip-rule="evenodd" d="M14.0625 13.437C14.0625 13.0918 14.3423 12.812 14.6875 12.812L16.875 12.812C17.2202 12.812 17.5 13.0918 17.5 13.437C17.5 13.7822 17.2202 14.062 16.875 14.062L14.6875 14.062C14.3423 14.062 14.0625 13.7822 14.0625 13.437Z" fill="#383838" fill-opacity="0.82"/>
    <path fill-rule="evenodd" clip-rule="evenodd" d="M13.125 12.4995C12.6072 12.4995 12.1875 12.9192 12.1875 13.437C12.1875 13.9548 12.6072 14.3745 13.125 14.3745C13.6428 14.3745 14.0625 13.9548 14.0625 13.437C14.0625 12.9192 13.6428 12.4995 13.125 12.4995ZM10.9375 13.437C10.9375 12.2289 11.9169 11.2495 13.125 11.2495C14.3331 11.2495 15.3125 12.2289 15.3125 13.437C15.3125 14.6451 14.3331 15.6245 13.125 15.6245C11.9169 15.6245 10.9375 14.6451 10.9375 13.437Z" fill="#383838" fill-opacity="0.82"/>
    <path fill-rule="evenodd" clip-rule="evenodd" d="M2.5 6.56194C2.5 6.21676 2.77983 5.93695 3.12501 5.93695L6.56251 5.937C6.90769 5.937 7.1875 6.21683 7.1875 6.562C7.1875 6.90718 6.90767 7.187 6.56249 7.187L3.12499 7.18695C2.77981 7.18695 2.5 6.90712 2.5 6.56194Z" fill="#383838" fill-opacity="0.82"/>
    <path fill-rule="evenodd" clip-rule="evenodd" d="M9.6875 5.937L16.875 5.93695C17.2202 5.93695 17.5 6.21677 17.5 6.56195C17.5 6.90712 17.2202 7.18695 16.875 7.18695L9.6875 7.187C9.34233 7.187 9.0625 6.90718 9.0625 6.562C9.0625 6.21682 9.34232 5.937 9.6875 5.937Z" fill="#383838" fill-opacity="0.82"/>
    <path fill-rule="evenodd" clip-rule="evenodd" d="M8.125 5.62451C7.60723 5.62451 7.1875 6.04424 7.1875 6.56201C7.1875 7.07978 7.60723 7.49951 8.125 7.49951C8.64277 7.49951 9.0625 7.07978 9.0625 6.56201C9.0625 6.04424 8.64277 5.62451 8.125 5.62451ZM5.9375 6.56201C5.9375 5.35389 6.91688 4.37451 8.125 4.37451C9.33312 4.37451 10.3125 5.35389 10.3125 6.56201C10.3125 7.77013 9.33312 8.74951 8.125 8.74951C6.91688 8.74951 5.9375 7.77013 5.9375 6.56201Z" fill="#383838" fill-opacity="0.82"/>
</svg>
