<svg width="13" height="13" viewBox="0 0 13 13" fill="none" xmlns="http://www.w3.org/2000/svg">
<g clip-path="url(#clip0_3_435)">
<path d="M12.998 11.2697L9.51206 7.78308C9.99846 6.98401 10.2557 6.06655 10.2557 5.13108C10.2665 4.4509 10.142 3.77535 9.88919 3.14379C9.63643 2.51222 9.26052 1.93726 8.78338 1.45239C8.30623 0.967523 7.73738 0.582441 7.10995 0.319573C6.48252 0.056706 5.80906 -0.0786922 5.12879 -0.0787353C4.44852 -0.0787785 3.77504 0.0565344 3.14757 0.319322C2.52011 0.58211 1.95121 0.96712 1.474 1.45193C0.99679 1.93673 0.620814 2.51165 0.36797 3.14318C0.115126 3.77472 -0.00953264 4.45025 0.00125522 5.13043C0.00134058 5.80383 0.134061 6.47062 0.391838 7.09273C0.649616 7.71483 1.0274 8.28008 1.50363 8.75618C1.97985 9.23228 2.54519 9.60993 3.16736 9.86755C3.78953 10.1252 4.45636 10.2577 5.12976 10.2576C6.0653 10.2576 6.98281 10.0001 7.78176 9.51338L11.269 13.0013L12.9974 11.271L12.998 11.2697ZM1.95711 5.12978C1.95797 4.28861 2.2925 3.48213 2.8873 2.88733C3.4821 2.29253 4.28858 1.95799 5.12976 1.95713C5.97077 1.95834 6.77697 2.293 7.3716 2.88775C7.96622 3.4825 8.30072 4.28877 8.30176 5.12978C8.30038 5.97057 7.96573 6.77651 7.37114 7.37098C6.77655 7.96544 5.97054 8.29993 5.12976 8.30113C4.28886 8.3001 3.48268 7.96569 2.88795 7.37121C2.29322 6.77672 1.95848 5.97068 1.95711 5.12978Z" fill="#5C5C5C"/>
</g>
<defs>
<clipPath id="clip0_3_435">
<rect width="13" height="13" fill="white"/>
</clipPath>
</defs>
</svg>

