<svg width="745" height="185" viewBox="0 0 745 185" fill="none" xmlns="http://www.w3.org/2000/svg">
<path d="M48.4043 184.953C39.0585 184.953 31.0479 183.618 24.3724 180.948C17.7372 178.318 12.5789 174.677 8.89727 170.024C5.25606 165.411 3.21296 160.111 2.76792 154.122H35.0532C35.3768 156.105 36.1861 157.702 37.4806 158.916C38.7753 160.131 40.4341 161.001 42.457 161.526C44.5204 162.093 46.8264 162.376 49.3753 162.376C53.7043 162.376 57.2847 161.325 60.1167 159.221C62.9893 157.117 64.4256 153.314 64.4256 147.811V132.03H63.4545C62.2408 135.187 60.3798 137.877 57.8714 140.102C55.363 142.287 52.3489 143.967 48.829 145.14C45.3093 146.273 41.4455 146.839 37.238 146.839C30.6029 146.839 24.4938 145.302 18.9105 142.226C13.3679 139.152 8.91749 134.275 5.55951 127.6C2.24196 120.924 0.583191 112.204 0.583191 101.441C0.583191 90.1932 2.32289 81.0488 5.80225 74.0086C9.32207 66.9682 13.8533 61.8095 19.396 58.5321C24.9792 55.2547 30.8457 53.616 36.9952 53.616C41.6073 53.616 45.6531 54.4253 49.1325 56.0438C52.6118 57.6216 55.5248 59.7459 57.8714 62.4164C60.218 65.0464 61.9982 67.9394 63.2119 71.0953H63.9401V54.83H97.4392V147.811C97.4392 155.699 95.3959 162.397 91.3098 167.9C87.2639 173.442 81.5594 177.67 74.196 180.585C66.8328 183.497 58.2355 184.953 48.4043 184.953ZM49.618 123.048C52.6928 123.048 55.3226 122.198 57.5072 120.499C59.7324 118.759 61.4317 116.291 62.605 113.094C63.8187 109.858 64.4256 105.973 64.4256 101.441C64.4256 96.8289 63.8187 92.8839 62.605 89.6066C61.4317 86.2886 59.7324 83.7599 57.5072 82.02C55.3226 80.2397 52.6928 79.3495 49.618 79.3495C46.5431 79.3495 43.9135 80.2397 41.7287 82.02C39.5846 83.7599 37.9257 86.2886 36.7524 89.6066C35.6197 92.8839 35.0532 96.8289 35.0532 101.441C35.0532 106.054 35.6197 109.979 36.7524 113.216C37.9257 116.412 39.5846 118.86 41.7287 120.559C43.9135 122.218 46.5431 123.048 49.618 123.048ZM105.932 148.053V54.83H139.431V148.053H105.932ZM122.682 45.1191C118.15 45.1191 114.267 43.6221 111.03 40.6279C107.793 37.6338 106.175 34.0326 106.175 29.8247C106.175 25.6168 107.793 22.0156 111.03 19.0215C114.267 16.0274 118.15 14.5303 122.682 14.5303C127.254 14.5303 131.137 16.0274 134.334 19.0215C137.57 22.0156 139.188 25.6168 139.188 29.8247C139.188 34.0326 137.57 37.6338 134.334 40.6279C131.137 43.6221 127.254 45.1191 122.682 45.1191ZM241.897 54.83L210.584 148.053H171.744L140.43 54.83H175.627L190.679 116.493H191.649L206.7 54.83H241.897ZM284.709 149.753C274.756 149.753 266.18 147.85 258.977 144.047C251.818 140.204 246.294 134.701 242.411 127.539C238.566 120.337 236.645 111.719 236.645 101.684C236.645 92.0545 238.588 83.6385 242.472 76.4362C246.354 69.2342 251.837 63.6302 258.917 59.6245C265.998 55.6188 274.352 53.616 283.981 53.616C291.02 53.616 297.393 54.7085 303.096 56.8935C308.802 59.0783 313.677 62.2545 317.722 66.422C321.768 70.5491 324.883 75.5664 327.068 81.4738C329.254 87.3812 330.345 94.037 330.345 101.441V109.21H247.084V90.7597H299.516C299.476 88.0892 298.788 85.7424 297.453 83.7193C296.159 81.6557 294.399 80.0576 292.173 78.9248C289.989 77.7514 287.5 77.1646 284.709 77.1646C281.998 77.1646 279.509 77.7514 277.245 78.9248C274.979 80.0576 273.158 81.6356 271.784 83.6586C270.448 85.6817 269.74 88.0488 269.658 90.7597V110.667C269.658 113.661 270.287 116.331 271.54 118.678C272.795 121.025 274.594 122.866 276.941 124.201C279.287 125.536 282.119 126.204 285.437 126.204C287.743 126.204 289.847 125.88 291.748 125.233C293.69 124.585 295.349 123.655 296.725 122.441C298.101 121.187 299.112 119.69 299.759 117.95H330.345C329.293 124.424 326.806 130.048 322.881 134.822C318.957 139.556 313.758 143.237 307.285 145.869C300.852 148.457 293.327 149.753 284.709 149.753ZM334.986 148.053V23.7555H368.484V71.0953H368.969C370.183 67.9394 371.963 65.0464 374.309 62.4164C376.657 59.7459 379.569 57.6216 383.05 56.0438C386.528 54.4253 390.574 53.616 395.187 53.616C401.335 53.616 407.181 55.2547 412.725 58.5321C418.307 61.8095 422.839 66.9682 426.318 74.0086C429.839 81.0488 431.598 90.1932 431.598 101.441C431.598 112.204 429.919 121.126 426.562 128.207C423.243 135.288 418.793 140.567 413.211 144.047C407.667 147.528 401.579 149.267 394.943 149.267C390.574 149.267 386.67 148.559 383.231 147.143C379.833 145.685 376.919 143.723 374.492 141.256C372.105 138.747 370.265 135.915 368.969 132.758H368.241V148.053H334.986ZM367.756 101.441C367.756 105.973 368.342 109.898 369.515 113.216C370.729 116.493 372.429 119.042 374.613 120.863C376.839 122.643 379.489 123.533 382.564 123.533C385.638 123.533 388.248 122.663 390.393 120.924C392.577 119.143 394.236 116.614 395.368 113.337C396.541 110.019 397.129 106.054 397.129 101.441C397.129 96.8289 396.541 92.8839 395.368 89.6066C394.236 86.2886 392.577 83.7599 390.393 82.02C388.248 80.2397 385.638 79.3495 382.564 79.3495C379.489 79.3495 376.839 80.2397 374.613 82.02C372.429 83.7599 370.729 86.2886 369.515 89.6066C368.342 92.8839 367.756 96.8289 367.756 101.441ZM681.791 54.83L695.386 83.7193L709.707 54.83H742.964L717.962 101.441L744.178 148.053H711.164L695.386 118.435L680.093 148.053H646.594L673.053 101.441L648.293 54.83H681.791Z" fill="black"/>
<path d="M455.014 141.842L537.123 170.925C537.294 170.925 537.464 171.095 537.635 171.095C537.979 171.266 538.492 171.266 538.833 171.266C539.175 171.266 539.346 171.266 539.688 171.266C539.688 171.266 539.688 171.266 539.86 171.266C540.031 171.266 540.373 171.095 540.544 171.095L622.653 142.012C624.706 141.329 626.075 139.276 626.075 137.222V79.5698L643.18 73.5821C644.549 73.0688 645.747 71.8714 646.26 70.5027C646.772 69.1342 646.601 67.4235 645.747 66.0548L625.218 31.8397L625.047 31.6686C625.047 31.4975 624.876 31.4975 624.876 31.3264C624.876 31.1553 624.706 31.1553 624.706 30.9842C624.706 30.9842 624.706 30.9842 624.706 30.8131C624.535 30.6421 624.535 30.6421 624.364 30.471L624.193 30.2999L624.022 30.1288H623.851L623.678 29.9577C623.508 29.7866 623.337 29.7866 623.166 29.7866C622.995 29.7866 622.995 29.6155 622.824 29.6155L540.715 0.532684C540.715 0.532684 540.715 0.532684 540.544 0.532684H540.373H540.202C540.031 0.532684 540.031 0.532684 539.86 0.532684C539.688 0.532684 539.688 0.532684 539.517 0.532684C539.346 0.532684 539.346 0.532684 539.175 0.532684C539.004 0.532684 538.833 0.532684 538.492 0.532684C538.321 0.532684 538.321 0.532684 538.15 0.532684C537.806 0.532684 537.464 0.703771 537.294 0.703771L455.184 29.7866C454.843 29.9577 454.672 29.9577 454.33 30.1288L454.159 30.2999C453.986 30.471 453.816 30.471 453.645 30.6421L453.474 30.8131C453.303 30.9842 453.132 30.9842 453.132 31.1553L452.961 31.3264C452.79 31.4975 452.79 31.6686 452.619 31.6686C452.619 31.6686 452.619 31.8397 452.448 31.8397L431.92 66.0548C430.724 67.9366 430.894 70.3316 432.263 71.8714C433.289 73.0688 434.658 73.7532 436.197 73.7532C436.71 73.7532 437.394 73.5821 437.908 73.411L451.592 68.6209V137.051C451.592 139.276 452.961 141.158 455.014 141.842ZM633.772 65.8837L561.584 91.5452L546.36 66.2259L618.548 40.5644L633.772 65.8837ZM543.965 12.5081L605.548 34.4058L543.965 56.3035V12.5081ZM543.965 81.9648L554.913 100.27C555.939 101.981 557.649 102.836 559.36 102.836C559.875 102.836 560.558 102.665 561.071 102.494L615.81 83.1624V133.458L543.965 158.948V81.9648ZM461.856 41.5909L533.701 67.0813V158.778L461.856 133.287V41.5909Z" fill="black"/>
</svg>
