<svg width="80" height="80" viewBox="0 0 41 49" fill="none" xmlns="http://www.w3.org/2000/svg">
<path d="M38.5912 44.1292V1.13195C38.5912 0.717487 38.2518 0.378113 37.8374 0.378113H34.822C34.4076 0.378113 34.0682 0.717487 34.0682 1.13195V7.91608H30.299L30.2994 5.6546C30.2994 5.24013 29.96 4.90076 29.5456 4.90076H26.5302L26.5306 2.6397C26.5306 2.22523 26.1913 1.88586 25.7768 1.88586H15.9773C15.5629 1.88586 15.2235 2.22523 15.2235 2.6397V5.65504C15.2235 6.06951 15.5629 6.40888 15.9773 6.40888H18.9927V7.9166L6.9315 7.91619V1.13207C6.9315 0.717602 6.59213 0.378228 6.17766 0.378228H3.16232C2.74785 0.378228 2.40848 0.717602 2.40848 1.13207V44.1293C1.55656 44.2651 0.900757 44.996 0.900757 45.8782V47.868C0.900757 48.2825 1.24013 48.6219 1.6546 48.6219H7.68486C8.09933 48.6219 8.4387 48.2825 8.4387 47.868V45.8782C8.4387 44.9885 7.78294 44.2577 6.93098 44.1293L6.93139 41.084H34.0687V44.1293C33.2168 44.2651 32.561 44.996 32.561 45.8782V47.868C32.561 48.2825 32.9004 48.6219 33.3148 48.6219H39.3451C39.7596 48.6219 40.099 48.2825 40.099 47.868V45.8782C40.099 44.9885 39.4432 44.2572 38.5912 44.1293L38.5912 44.1292ZM35.5763 1.88624H37.084V44.0998H35.5763V1.88624ZM34.0686 22.2392H23.5223V14.7008C23.5223 14.2864 23.1829 13.947 22.7684 13.947H10.6999C10.2855 13.947 9.94609 14.2864 9.94609 14.7008V22.2388H6.93075L6.93116 12.4398H34.0685L34.0686 22.2392ZM6.93123 23.7465H34.0686V25.2543H6.93123V23.7465ZM22.0148 22.2392H20.507V15.4551H22.0148V22.2392ZM18.9994 22.2392H17.4917V15.4551H18.9994V22.2392ZM15.9767 22.2392H14.469V15.4551H15.9767V22.2392ZM12.9614 22.2392H11.4537V15.4551H12.9614V22.2392ZM16.7306 3.39375H25.0224V4.90147H16.7306V3.39375ZM20.4994 6.40867H28.7912V7.91639H20.4994V6.40867ZM34.068 9.42401V10.9317H6.9307V9.42401H34.068ZM3.91568 1.88603H5.4234V44.0995H3.91568V1.88603ZM6.93102 47.1146H2.40795V45.8781C2.40795 45.7275 2.5286 45.6069 2.67961 45.6069H6.65976C6.81037 45.6069 6.93101 45.7275 6.93101 45.8781L6.93102 47.1146ZM34.0684 39.5766H6.93102V38.0689H34.0684V39.5766ZM11.4536 36.5612H9.94584V29.7771H11.4536V36.5612ZM21.253 33.5459H15.2228V32.0382H21.253V33.5459ZM16.7304 35.0536H22.7606V36.5614H16.7304V35.0536ZM31.0523 36.5614H26.5292V32.0383H31.0523V36.5614ZM32.56 36.5614V31.2848C32.56 30.8704 32.2206 30.531 31.8062 30.531H25.7759C25.3614 30.531 25.0221 30.8704 25.0221 31.2848V36.5614H24.2682V34.2999C24.2682 33.8854 23.9288 33.546 23.5144 33.546H22.7605V31.2846C22.7605 30.8701 22.4212 30.5307 22.0067 30.5307L14.4687 30.5311C14.0542 30.5311 13.7149 30.8705 13.7149 31.285V34.3003C13.7149 34.7148 14.0542 35.0541 14.4687 35.0541H15.2226V36.5619H12.9611V29.0235C12.9611 28.609 12.6217 28.2696 12.2072 28.2696H9.19189C8.77742 28.2696 8.43805 28.609 8.43805 29.0235V36.5614H6.93033L6.93074 26.762H34.0681V36.5614L32.56 36.5614ZM38.5903 47.115H34.0672V45.8785C34.0672 45.7279 34.1878 45.6073 34.3385 45.6073H38.3186C38.4692 45.6073 38.5899 45.7279 38.5899 45.8785L38.5903 47.115Z" fill="black"/>
</svg>
